<?xml version="1.0" standalone="no"?>
<!DOCTYPE svg PUBLIC "-//W3C//DTD SVG 20010904//EN"
 "http://www.w3.org/TR/2001/REC-SVG-20010904/DTD/svg10.dtd">
<svg version="1.0" xmlns="http://www.w3.org/2000/svg"
 width="144.000000pt" height="150.000000pt" viewBox="0 0 144.000000 150.000000"
 preserveAspectRatio="xMidYMid meet">

<g transform="translate(0.000000,150.000000) scale(0.100000,-0.100000)"
fill="#000000" stroke="none">
<path d="M615 1296 c-33 -8 -89 -24 -125 -35 -55 -17 -70 -19 -98 -9 -56 21
-64 10 -158 -201 -26 -57 -53 -127 -60 -155 -22 -81 -18 -180 11 -271 14 -44
34 -134 45 -200 33 -200 60 -265 129 -312 88 -60 172 -53 217 18 30 47 60 61
135 62 67 0 112 -23 134 -70 l16 -33 105 0 c107 0 154 11 187 44 22 23 23 116
1 200 -23 87 -15 130 38 208 25 36 56 97 68 134 12 38 31 83 41 99 28 48 15
103 -62 255 -48 94 -85 153 -123 194 l-55 60 -39 -16 c-37 -15 -43 -14 -113 9
-91 31 -210 38 -294 19z m-22 -311 c32 -13 57 -13 223 0 152 13 189 13 196 3
4 -7 8 -10 8 -5 0 4 13 1 29 -8 96 -49 129 -210 69 -331 -26 -52 -83 -104
-116 -107 -11 0 -19 -4 -17 -8 6 -9 -57 -26 -145 -40 -92 -14 -248 -7 -350 17
-75 17 -75 17 -45 30 l30 13 -28 1 c-61 1 -137 68 -156 137 -14 49 -14 137 0
187 27 99 189 158 302 111z"/>
<path d="M570 950 c-13 -8 -12 -10 3 -10 9 0 17 5 17 10 0 12 -1 12 -20 0z"/>
<path d="M535 920 c33 -36 145 -111 145 -96 0 7 -37 37 -82 66 -46 29 -74 42
-63 30z"/>
<path d="M381 885 c9 -11 21 -29 27 -40 6 -11 12 -14 12 -8 0 7 -12 25 -27 41
-16 15 -21 19 -12 7z"/>
<path d="M896 845 c-11 -6 -31 -30 -44 -53 -20 -35 -29 -42 -55 -43 -32 0 -32
-1 13 -20 24 -11 47 -25 51 -30 3 -6 22 -14 42 -19 34 -7 38 -6 56 24 26 43
31 65 23 110 -6 34 -11 39 -36 41 -15 0 -38 -4 -50 -10z m52 -58 c2 -10 -6
-21 -22 -29 -33 -14 -39 -8 -26 26 11 31 42 33 48 3z"/>
<path d="M455 820 c-49 -55 12 -146 86 -127 20 5 20 5 2 -15 -18 -21 -18 -21
6 -8 21 11 23 17 19 71 -5 67 -27 99 -68 99 -15 0 -35 -9 -45 -20z m72 -36 c3
-8 -2 -23 -11 -32 -14 -15 -18 -15 -31 -1 -9 9 -13 23 -9 32 8 21 43 22 51 1z"/>
</g>
</svg>
